# xmcd
# 
# Track frame offsets:
#     150
#     16863
#     31759
#     49194
#     67063
#     80952
#     92669
#     117549
#     133352
#     150307
#     168565
#     186208
#     201360
#     215844
#     230571
#     245046
#     253780
#     265926
#     282454
#     300294
# 
# Disc length: 4123
# 
# Revision: 1
# Processed by: cddbd v1.5.2PL0 Copyright (c) Steve Scherf et al.
# Submitted via: fre:ac v1.0.17
# 
DISCID=2f101914
DTITLE=Cab Calloway - The Gold Collection [CD 2)
DYEAR=2004
DGENRE=Jazz
TTITLE0=Nagasaki
TTITLE1=Hoy Hoy
TTITLE2=Jumpin' Jive
TTITLE3=Fifteen Minutes Intermission
TTITLE4=A Chicken Ain't Nothing But a Bird
TTITLE5=St. James Infirmary
TTITLE6=I Want to Rock
TTITLE7=Minnie the Moocher
TTITLE8=Honey Dripper
TTITLE9=Hey Now-Hey Now
TTITLE10=Hi De Ho Man
TTITLE11=Oh Grandpa
TTITLE12=Jungle King
TTITLE13=The Calloway Boogie
TTITLE14=Everybody Eats When They Come to My House
TTITLE15=Two Blocks Down, Turn to the Left
TTITLE16=Birth of the Blues
TTITLE17=I've Got You Under My Skin
TTITLE18=Afternoon Moon
TTITLE19=The Duck Trot
EXTD=YEAR: 2004
EXTT0=
EXTT1=
EXTT2=
EXTT3=
EXTT4=
EXTT5=
EXTT6=
EXTT7=
EXTT8=
EXTT9=
EXTT10=
EXTT11=
EXTT12=
EXTT13=
EXTT14=
EXTT15=
EXTT16=
EXTT17=
EXTT18=
EXTT19=
PLAYORDER=
